<svg width="100" height="100" viewBox="0 0 100 100" fill="none" xmlns="http://www.w3.org/2000/svg">
<rect x="6.67096" y="5.67097" width="88" height="88" rx="20" fill="#FF5C00"/>
<g filter="url(#filter0_d_7_2)">
<path d="M32.6868 76.6649C31.6745 78.2738 32.152 80.4154 33.8517 81.2664C38.9908 83.8395 44.6971 85.1281 50.4774 84.9961C57.4085 84.8379 64.1399 82.6442 69.8333 78.6882C75.5267 74.7322 79.9306 69.1887 82.4964 62.7481C85.0622 56.3074 85.6767 49.2543 84.2632 42.4671C82.8497 35.6798 79.4708 29.4583 74.5473 24.5774C69.6237 19.6964 63.3731 16.3718 56.5737 15.0174C49.7744 13.663 42.7269 14.3388 36.3089 16.9605C30.9564 19.147 26.2389 22.6064 22.5542 27.0171C21.3355 28.4758 21.7526 30.63 23.3229 31.701C24.8933 32.772 27.02 32.3505 28.2728 30.9209C31.1721 27.6121 34.8105 25.0084 38.912 23.3329C44.0797 21.2219 49.7543 20.6778 55.229 21.7683C60.7037 22.8589 65.7367 25.5359 69.701 29.4659C73.6654 33.396 76.3861 38.4055 77.5242 43.8705C78.6623 49.3355 78.1675 55.0146 76.1016 60.2005C74.0356 65.3864 70.4897 69.8499 65.9054 73.0352C61.3212 76.2206 55.9012 77.9869 50.3203 78.1144C45.891 78.2155 41.5156 77.2806 37.5365 75.4043C35.8172 74.5936 33.6991 75.0561 32.6868 76.6649Z" fill="white"/>
<path d="M73.671 50.171C73.671 54.8654 69.8654 58.671 65.171 58.671C60.4765 58.671 56.671 54.8654 56.671 50.171C56.671 45.4766 60.4765 41.671 65.171 41.671C69.8654 41.671 73.671 45.4766 73.671 50.171ZM60.4365 50.171C60.4365 52.7858 62.5562 54.9055 65.171 54.9055C67.7858 54.9055 69.9055 52.7858 69.9055 50.171C69.9055 47.5562 67.7858 45.4365 65.171 45.4365C62.5562 45.4365 60.4365 47.5562 60.4365 50.171Z" fill="white"/>
<path d="M60.8914 67.1054C61.5981 68.3294 61.1829 69.9077 59.8931 70.4856C56.6865 71.9223 53.2038 72.671 49.671 72.671C46.1381 72.671 42.6554 71.9223 39.4488 70.4856C38.159 69.9077 37.7438 68.3294 38.4505 67.1053C39.1572 65.8813 40.7179 65.479 42.0225 66.0227C44.4382 67.0295 47.0371 67.5527 49.671 67.5527C52.3048 67.5527 54.9037 67.0295 57.3194 66.0227C58.624 65.479 60.1847 65.8813 60.8914 67.1054Z" fill="white"/>
</g>
<defs>
<filter id="filter0_d_7_2" x="10.8459" y="5.33656" width="83.1594" height="90.6688" filterUnits="userSpaceOnUse" color-interpolation-filters="sRGB">
<feFlood flood-opacity="0" result="BackgroundImageFix"/>
<feColorMatrix in="SourceAlpha" type="matrix" values="0 0 0 0 0 0 0 0 0 0 0 0 0 0 0 0 0 0 127 0" result="hardAlpha"/>
<feOffset dx="-1" dy="1"/>
<feGaussianBlur stdDeviation="5"/>
<feComposite in2="hardAlpha" operator="out"/>
<feColorMatrix type="matrix" values="0 0 0 0 0 0 0 0 0 0 0 0 0 0 0 0 0 0 0.25 0"/>
<feBlend mode="normal" in2="BackgroundImageFix" result="effect1_dropShadow_7_2"/>
<feBlend mode="normal" in="SourceGraphic" in2="effect1_dropShadow_7_2" result="shape"/>
</filter>
</defs>
</svg>
